<svg xmlns="http://www.w3.org/2000/svg" xmlns:xlink="http://www.w3.org/1999/xlink" width="500" zoomAndPan="magnify" viewBox="0 0 375 374.999991" height="500" preserveAspectRatio="xMidYMid meet" version="1.0"><defs><clipPath id="d7d1d9a42f"><path d="M 0 79.773438 L 371 79.773438 L 371 295.023438 L 0 295.023438 Z M 0 79.773438 " clip-rule="nonzero"/></clipPath><clipPath id="f0efd3f00e"><path d="M 304.773438 37.5 L 337.773438 37.5 L 337.773438 70.5 L 304.773438 70.5 Z M 304.773438 37.5 " clip-rule="nonzero"/></clipPath><clipPath id="ef7a10c03d"><path d="M 37.5 63.410156 L 70.5 63.410156 L 70.5 96.410156 L 37.5 96.410156 Z M 37.5 63.410156 " clip-rule="nonzero"/></clipPath><clipPath id="5933ea1e18"><path d="M 57 63.410156 L 61 63.410156 L 61 67 L 57 67 Z M 57 63.410156 " clip-rule="nonzero"/></clipPath><clipPath id="25ebe72971"><path d="M 262.328125 304.773438 L 295.328125 304.773438 L 295.328125 337.773438 L 262.328125 337.773438 Z M 262.328125 304.773438 " clip-rule="nonzero"/></clipPath><clipPath id="8cac3a458a"><path d="M 74.816406 321.136719 L 107.816406 321.136719 L 107.816406 354 L 74.816406 354 Z M 74.816406 321.136719 " clip-rule="nonzero"/></clipPath><clipPath id="687accdf30"><path d="M 94 321.136719 L 98 321.136719 L 98 325 L 94 325 Z M 94 321.136719 " clip-rule="nonzero"/></clipPath></defs><g clip-path="url(#d7d1d9a42f)"><path fill="#818cf8" d="M 369.628906 192.621094 C 366.253906 173.191406 347.300781 162.066406 329.804688 158.0625 C 325.917969 157.171875 322.097656 156.632812 318.539062 156.433594 C 316.664062 156.328125 314.855469 156.320312 313.152344 156.394531 C 310.46875 146.382812 304.425781 137.566406 296.171875 130.976562 C 293.242188 128.625 290.03125 126.566406 286.585938 124.835938 C 278.769531 120.894531 269.769531 118.648438 260.1875 118.648438 C 259.753906 118.648438 259.324219 118.671875 258.894531 118.679688 C 253.515625 96.492188 231.734375 79.882812 205.660156 79.882812 C 192.050781 79.882812 179.605469 84.417969 170.050781 91.902344 C 167.046875 94.261719 164.324219 96.914062 161.953125 99.8125 C 158.507812 104 155.773438 108.703125 153.917969 113.769531 C 145.097656 108.195312 134.382812 104.914062 122.820312 104.914062 C 93.261719 104.914062 69.203125 126.265625 68.320312 152.90625 C 68.304688 153.40625 68.296875 153.90625 68.296875 154.414062 C 67.542969 154.234375 66.785156 154.074219 66.015625 153.929688 L 66.007812 153.929688 C 62.300781 153.199219 58.46875 152.820312 54.523438 152.820312 C 50.050781 152.820312 45.699219 153.3125 41.542969 154.234375 L 41.535156 154.234375 C 38.222656 154.964844 35.03125 155.980469 31.988281 157.242188 L 31.980469 157.242188 C 18.722656 162.714844 8.316406 172.84375 3.289062 185.332031 L 3.289062 185.339844 C 2.222656 188 1.398438 190.769531 0.835938 193.621094 C 0.285156 196.441406 0 199.34375 0 202.3125 C 0 207.660156 0.9375 212.820312 2.667969 217.644531 L 7.945312 228.042969 C 14.355469 237.597656 24.25 245.023438 36.023438 248.875 C 37.03125 249.203125 38.054688 249.511719 39.089844 249.789062 C 39.398438 253.070312 40.050781 256.261719 41.027344 259.328125 C 44.679688 270.855469 52.832031 280.664062 63.648438 287.074219 C 66.484375 288.757812 69.503906 290.203125 72.679688 291.386719 C 79.066406 293.777344 86.066406 295.089844 93.398438 295.089844 C 106.441406 295.089844 118.410156 290.925781 127.792969 283.984375 C 128.023438 283.816406 128.257812 283.644531 128.488281 283.46875 C 131.460938 285.742188 134.710938 287.742188 138.1875 289.402344 C 145.765625 293.03125 154.402344 295.089844 163.574219 295.089844 C 173.632812 295.089844 183.058594 292.605469 191.148438 288.289062 C 193.457031 287.058594 195.648438 285.683594 197.722656 284.167969 C 199.257812 285.289062 200.867188 286.34375 202.535156 287.3125 C 211.003906 292.230469 221.070312 295.089844 231.871094 295.089844 C 240.003906 295.089844 248.957031 293.929688 257.632812 291.660156 C 260.292969 290.96875 262.921875 290.179688 265.496094 289.277344 C 283.113281 283.152344 298.054688 272.316406 300.246094 257.398438 C 306.027344 258.113281 312.25 257.867188 318.53125 256.714844 C 322.289062 256.03125 326.070312 255.023438 329.773438 253.691406 C 353.847656 245.128906 374.984375 223.519531 369.628906 192.621094 Z M 369.628906 192.621094 " fill-opacity="1" fill-rule="nonzero"/></g><path fill="#818cf8" d="M 317.445312 61.445312 C 315.394531 61.929688 315 62.320312 314.519531 64.375 C 314.035156 62.320312 313.644531 61.929688 311.59375 61.445312 C 313.644531 60.964844 314.035156 60.574219 314.519531 58.519531 C 315 60.574219 315.394531 60.964844 317.445312 61.445312 Z M 317.445312 61.445312 " fill-opacity="1" fill-rule="nonzero"/><g clip-path="url(#f0efd3f00e)"><path fill="#818cf8" d="M 337.488281 53.859375 C 322.363281 54.539062 321.808594 55.089844 321.128906 70.214844 C 320.449219 55.089844 319.898438 54.539062 304.773438 53.859375 C 319.898438 53.175781 320.449219 52.625 321.128906 37.5 C 321.808594 52.625 322.363281 53.175781 337.488281 53.859375 Z M 337.488281 53.859375 " fill-opacity="1" fill-rule="nonzero"/></g><path fill="#818cf8" d="M 317.4375 45.21875 C 314.058594 45.371094 313.9375 45.492188 313.785156 48.871094 C 313.632812 45.492188 313.507812 45.371094 310.128906 45.21875 C 313.507812 45.066406 313.632812 44.941406 313.785156 41.566406 C 313.9375 44.941406 314.058594 45.066406 317.4375 45.21875 Z M 317.4375 45.21875 " fill-opacity="1" fill-rule="nonzero"/><path fill="#818cf8" d="M 335.78125 44.910156 C 330.820312 45.132812 330.636719 45.3125 330.414062 50.273438 C 330.191406 45.3125 330.011719 45.132812 325.050781 44.910156 C 330.011719 44.6875 330.191406 44.503906 330.414062 39.542969 C 330.636719 44.503906 330.820312 44.6875 335.78125 44.910156 Z M 335.78125 44.910156 " fill-opacity="1" fill-rule="nonzero"/><path fill="#818cf8" d="M 335.78125 41.253906 C 334.429688 41.316406 334.378906 41.367188 334.320312 42.714844 C 334.257812 41.367188 334.207031 41.316406 332.855469 41.253906 C 334.207031 41.195312 334.257812 41.144531 334.320312 39.792969 C 334.378906 41.144531 334.429688 41.195312 335.78125 41.253906 Z M 335.78125 41.253906 " fill-opacity="1" fill-rule="nonzero"/><path fill="#818cf8" d="M 327.351562 39.542969 C 326 39.605469 325.953125 39.652344 325.890625 41.003906 C 325.832031 39.652344 325.78125 39.605469 324.429688 39.542969 C 325.78125 39.484375 325.832031 39.433594 325.890625 38.082031 C 325.953125 39.433594 326 39.484375 327.351562 39.542969 Z M 327.351562 39.542969 " fill-opacity="1" fill-rule="nonzero"/><path fill="#818cf8" d="M 50.171875 87.355469 C 48.121094 87.839844 47.730469 88.230469 47.246094 90.285156 C 46.761719 88.230469 46.371094 87.839844 44.320312 87.355469 C 46.371094 86.875 46.761719 86.480469 47.246094 84.429688 C 47.730469 86.480469 48.121094 86.875 50.171875 87.355469 Z M 50.171875 87.355469 " fill-opacity="1" fill-rule="nonzero"/><g clip-path="url(#ef7a10c03d)"><path fill="#818cf8" d="M 70.214844 79.765625 C 55.089844 80.445312 54.539062 80.996094 53.859375 96.125 C 53.175781 80.996094 52.625 80.445312 37.5 79.765625 C 52.625 79.085938 53.175781 78.535156 53.859375 63.410156 C 54.539062 78.535156 55.089844 79.085938 70.214844 79.765625 Z M 70.214844 79.765625 " fill-opacity="1" fill-rule="nonzero"/></g><path fill="#818cf8" d="M 50.164062 71.128906 C 46.785156 71.277344 46.664062 71.402344 46.511719 74.78125 C 46.359375 71.402344 46.234375 71.277344 42.859375 71.128906 C 46.234375 70.976562 46.359375 70.851562 46.511719 67.472656 C 46.664062 70.851562 46.785156 70.976562 50.164062 71.128906 Z M 50.164062 71.128906 " fill-opacity="1" fill-rule="nonzero"/><path fill="#818cf8" d="M 68.507812 70.816406 C 63.546875 71.039062 63.367188 71.222656 63.140625 76.183594 C 62.917969 71.222656 62.738281 71.039062 57.777344 70.816406 C 62.738281 70.59375 62.917969 70.414062 63.140625 65.453125 C 63.367188 70.414062 63.546875 70.59375 68.507812 70.816406 Z M 68.507812 70.816406 " fill-opacity="1" fill-rule="nonzero"/><path fill="#818cf8" d="M 68.507812 67.164062 C 67.15625 67.226562 67.105469 67.273438 67.046875 68.625 C 66.984375 67.273438 66.9375 67.226562 65.585938 67.164062 C 66.9375 67.105469 66.984375 67.054688 67.046875 65.703125 C 67.105469 67.054688 67.15625 67.105469 68.507812 67.164062 Z M 68.507812 67.164062 " fill-opacity="1" fill-rule="nonzero"/><g clip-path="url(#5933ea1e18)"><path fill="#818cf8" d="M 60.078125 65.453125 C 58.726562 65.515625 58.679688 65.5625 58.617188 66.914062 C 58.558594 65.5625 58.507812 65.515625 57.15625 65.453125 C 58.507812 65.390625 58.558594 65.34375 58.617188 63.992188 C 58.679688 65.34375 58.726562 65.390625 60.078125 65.453125 Z M 60.078125 65.453125 " fill-opacity="1" fill-rule="nonzero"/></g><path fill="#818cf8" d="M 275 328.71875 C 272.949219 329.203125 272.554688 329.59375 272.074219 331.648438 C 271.589844 329.59375 271.199219 329.203125 269.148438 328.71875 C 271.199219 328.238281 271.589844 327.84375 272.074219 325.792969 C 272.554688 327.84375 272.949219 328.238281 275 328.71875 Z M 275 328.71875 " fill-opacity="1" fill-rule="nonzero"/><g clip-path="url(#25ebe72971)"><path fill="#818cf8" d="M 295.042969 321.128906 C 279.917969 321.808594 279.363281 322.363281 278.683594 337.488281 C 278.003906 322.363281 277.453125 321.808594 262.328125 321.128906 C 277.453125 320.449219 278.003906 319.898438 278.683594 304.773438 C 279.363281 319.898438 279.917969 320.449219 295.042969 321.128906 Z M 295.042969 321.128906 " fill-opacity="1" fill-rule="nonzero"/></g><path fill="#818cf8" d="M 274.992188 312.492188 C 271.613281 312.644531 271.492188 312.765625 271.339844 316.144531 C 271.1875 312.765625 271.0625 312.644531 267.683594 312.492188 C 271.0625 312.339844 271.1875 312.214844 271.339844 308.835938 C 271.492188 312.214844 271.613281 312.339844 274.992188 312.492188 Z M 274.992188 312.492188 " fill-opacity="1" fill-rule="nonzero"/><path fill="#818cf8" d="M 293.335938 312.179688 C 288.375 312.402344 288.191406 312.585938 287.96875 317.546875 C 287.746094 312.585938 287.566406 312.40625 282.605469 312.179688 C 287.566406 311.957031 287.746094 311.777344 287.96875 306.816406 C 288.191406 311.777344 288.375 311.957031 293.335938 312.179688 Z M 293.335938 312.179688 " fill-opacity="1" fill-rule="nonzero"/><path fill="#818cf8" d="M 293.335938 308.527344 C 291.984375 308.589844 291.933594 308.636719 291.875 309.988281 C 291.8125 308.636719 291.761719 308.589844 290.410156 308.527344 C 291.761719 308.46875 291.8125 308.417969 291.875 307.066406 C 291.933594 308.417969 291.984375 308.46875 293.335938 308.527344 Z M 293.335938 308.527344 " fill-opacity="1" fill-rule="nonzero"/><path fill="#818cf8" d="M 284.90625 306.816406 C 283.554688 306.878906 283.507812 306.925781 283.445312 308.277344 C 283.386719 306.925781 283.335938 306.878906 281.984375 306.816406 C 283.335938 306.757812 283.386719 306.707031 283.445312 305.355469 C 283.507812 306.707031 283.554688 306.757812 284.90625 306.816406 Z M 284.90625 306.816406 " fill-opacity="1" fill-rule="nonzero"/><path fill="#818cf8" d="M 87.488281 345.082031 C 85.4375 345.566406 85.046875 345.957031 84.5625 348.011719 C 84.078125 345.957031 83.6875 345.566406 81.636719 345.082031 C 83.6875 344.601562 84.078125 344.210938 84.5625 342.15625 C 85.046875 344.210938 85.4375 344.601562 87.488281 345.082031 Z M 87.488281 345.082031 " fill-opacity="1" fill-rule="nonzero"/><g clip-path="url(#8cac3a458a)"><path fill="#818cf8" d="M 107.53125 337.492188 C 92.40625 338.175781 91.855469 338.726562 91.175781 353.851562 C 90.492188 338.726562 89.941406 338.175781 74.816406 337.492188 C 89.941406 336.8125 90.492188 336.261719 91.175781 321.136719 C 91.855469 336.261719 92.40625 336.8125 107.53125 337.492188 Z M 107.53125 337.492188 " fill-opacity="1" fill-rule="nonzero"/></g><path fill="#818cf8" d="M 87.480469 328.855469 C 84.101562 329.007812 83.980469 329.128906 83.828125 332.507812 C 83.675781 329.128906 83.550781 329.007812 80.175781 328.855469 C 83.550781 328.703125 83.675781 328.578125 83.828125 325.203125 C 83.980469 328.578125 84.101562 328.703125 87.480469 328.855469 Z M 87.480469 328.855469 " fill-opacity="1" fill-rule="nonzero"/><path fill="#818cf8" d="M 105.824219 328.546875 C 100.863281 328.769531 100.683594 328.949219 100.457031 333.910156 C 100.234375 328.949219 100.054688 328.769531 95.09375 328.546875 C 100.054688 328.320312 100.234375 328.140625 100.457031 323.179688 C 100.683594 328.140625 100.863281 328.320312 105.824219 328.546875 Z M 105.824219 328.546875 " fill-opacity="1" fill-rule="nonzero"/><path fill="#818cf8" d="M 105.824219 324.890625 C 104.472656 324.953125 104.421875 325 104.363281 326.351562 C 104.300781 325 104.253906 324.953125 102.902344 324.890625 C 104.253906 324.832031 104.300781 324.78125 104.363281 323.429688 C 104.421875 324.78125 104.472656 324.832031 105.824219 324.890625 Z M 105.824219 324.890625 " fill-opacity="1" fill-rule="nonzero"/><g clip-path="url(#687accdf30)"><path fill="#818cf8" d="M 97.394531 323.179688 C 96.042969 323.242188 95.996094 323.289062 95.933594 324.640625 C 95.875 323.289062 95.824219 323.242188 94.472656 323.179688 C 95.824219 323.121094 95.875 323.070312 95.933594 321.71875 C 95.996094 323.070312 96.042969 323.121094 97.394531 323.179688 Z M 97.394531 323.179688 " fill-opacity="1" fill-rule="nonzero"/></g></svg>