<svg xmlns="http://www.w3.org/2000/svg" xmlns:xlink="http://www.w3.org/1999/xlink" width="500" zoomAndPan="magnify" viewBox="0 0 375 374.999991" height="500" preserveAspectRatio="xMidYMid meet" version="1.0"><defs><clipPath id="651c357e55"><path d="M 0.316406 11.734375 L 342.339844 11.734375 L 342.339844 243 L 0.316406 243 Z M 0.316406 11.734375 " clip-rule="nonzero"/></clipPath><clipPath id="86575df67c"><path d="M 234 0.726562 L 346 0.726562 L 346 102 L 234 102 Z M 234 0.726562 " clip-rule="nonzero"/></clipPath><clipPath id="cc65460f78"><rect x="0" width="347" y="0" height="244"/></clipPath></defs><g transform="matrix(1, 0, 0, 1, 12, 59)"><g clip-path="url(#cc65460f78)"><g clip-path="url(#651c357e55)"><path fill="#4f46e5" d="M 221.941406 215.089844 L 207.089844 226.769531 C 169.527344 256.304688 114.300781 243.875 93.230469 200.988281 L 0.316406 12.015625 L 38.566406 12.015625 C 67.824219 12.015625 94.519531 28.554688 107.332031 54.851562 L 168.601562 180.507812 C 173.0625 189.664062 179.59375 197.640625 187.777344 203.6875 C 196.007812 209.765625 207.285156 214.964844 221.503906 214.5625 C 218.210938 210.414062 215.300781 205.980469 212.859375 200.996094 L 119.9375 12.015625 L 158.1875 12.015625 C 187.445312 12.015625 214.140625 28.554688 226.953125 54.851562 L 288.222656 180.507812 C 292.6875 189.664062 299.214844 197.640625 307.402344 203.6875 C 315.851562 209.933594 327.523438 215.257812 342.308594 214.511719 L 326.703125 226.769531 C 293.710938 252.726562 247.066406 246.15625 221.941406 215.089844 Z M 300.417969 92.230469 L 342.351562 11.75 L 237.597656 11.777344 L 278.035156 92.078125 C 282.640625 101.238281 295.6875 101.328125 300.417969 92.230469 Z M 300.417969 92.230469 " fill-opacity="1" fill-rule="nonzero"/></g><g clip-path="url(#86575df67c)"><path fill="#ffe84c" d="M 307.046875 92.277344 C 299.601562 105.171875 280.996094 105.171875 273.554688 92.277344 L 255.484375 60.984375 L 237.417969 29.6875 C 229.972656 16.796875 239.277344 0.683594 254.164062 0.683594 L 326.4375 0.683594 C 341.320312 0.683594 350.625 16.796875 343.183594 29.6875 L 325.113281 60.984375 Z M 307.046875 92.277344 " fill-opacity="1" fill-rule="nonzero"/></g></g></g></svg>